<svg xmlns="http://www.w3.org/2000/svg" x="0px" y="0px" width="100" height="100" viewBox="0 0 100 100">
<path fill="#e2e1e2" d="M46.979,69.5c0,0,4.809,3.415,11.021-1.468l21.662-21.988l-1.566-1.182L59.649,63.372 c0,0-3.204,3.231-4.532,3.926c-1.358,0.71-4.755,1.213-6.128,0.128L46.979,69.5z"></path><path fill="#e2e1e2" d="M29.904,52.649c0,0-3.096-6,1.596-11.649l20.521-20.521c0,0,2.202-0.511,1.532,1.468L33.418,42.082 c0,0-3.259,4.991-1.567,8.641L29.904,52.649z"></path><polygon fill="#f8e55c" points="43,73 26,58 50,33 67,50"></polygon><polygon fill="#fdf5a9" points="26,57 45,38 49.5,42.213 31.093,60.604"></polygon><path fill="#fdfcee" d="M26,58c0,0,3,2,6,1c0,0,1,7,9,9c0,0-1,3,2,5l-25,9L26,58z"></path><path fill="#444445" d="M18,82l3-10c0,0,6,3,6,7L18,82z"></path><polygon fill="#fab87f" points="40.802,67.495 57.574,50.722 61.569,54.794 43.069,73.294 41,70.664"></polygon><path fill="#e2e1e2" d="M45.5,38.5l16.222-16.222c4.296-4.296,11.261-4.296,15.556,0l0.444,0.444 c4.296,4.296,4.296,11.261,0,15.556L61.5,54.5L45.5,38.5z"></path><polyline fill="#cccabc" points="58,51 63,46 66,49 61,54 58,51"></polyline><polygon fill="#fff" points="45.553,38.229 49,42 53.553,37.229 50.053,32.729"></polygon><path fill="#eae8e3" d="M41.04,31.96l4.5,4.5l3.96-3.96L45,28C45,28,41.079,31.921,41.04,31.96z"></path><polygon fill="#eae8e3" points="63,54 67.5,58.5 71.5,54.5 66.5,49.5"></polygon><circle cx="73.5" cy="26.5" r="2.5" fill="#1f212b"></circle><circle cx="67.5" cy="32.5" r="2.5" fill="#1f212b"></circle><circle cx="61.5" cy="38.5" r="2.5" fill="#1f212b"></circle><circle cx="59.5" cy="31.5" r="2.5" fill="#1f212b"></circle><circle cx="65.5" cy="25.5" r="2.5" fill="#1f212b"></circle><circle cx="74.5" cy="34.5" r="2.5" fill="#1f212b"></circle><circle cx="68.5" cy="40.5" r="2.5" fill="#1f212b"></circle><path fill="#1f212b" d="M79.561,44.854c-0.585-0.584-1.536-0.584-2.121,0l-7.4,7.4l-2.44-2.44l10.357-10.357 c4.938-4.938,4.938-12.976,0-17.914c-2.392-2.393-5.573-3.71-8.957-3.71s-6.565,1.317-8.957,3.71L49.686,31.9l-2.706-2.706 l6.927-6.926c0.569-0.57,0.569-1.498,0-2.068c-0.57-0.57-1.498-0.57-2.068,0L31.797,40.241c-3.226,3.226-4.223,7.947-2.629,12.176 l-3.875,3.876c-0.113,0.112-0.197,0.251-0.246,0.402l-8,25c-0.116,0.362-0.016,0.76,0.258,1.024C17.495,82.902,17.746,83,18,83 c0.114,0,0.228-0.02,0.339-0.06l25-9c0.138-0.05,0.264-0.129,0.368-0.233l3.44-3.44c1.263,0.45,2.566,0.684,3.861,0.684 c2.988,0,5.917-1.17,8.124-3.376l8.76-8.76c0,0,0.001-0.001,0.001-0.001l4-4c0,0,0-0.001,0.001-0.001l7.752-7.752 c0.585-0.585,0.585-1.536,0-2.121L79.561,44.854z M69,19.833c2.85,0,5.528,1.109,7.543,3.124c4.159,4.159,4.159,10.927,0,15.086 l-0.134,0.134C76.127,38.066,75.822,38,75.5,38c-1.381,0-2.5,1.119-2.5,2.5c0,0.322,0.066,0.627,0.177,0.909l-2.768,2.767 C70.127,44.066,69.822,44,69.5,44c-1.381,0-2.5,1.119-2.5,2.5c0,0.322,0.066,0.627,0.177,0.909l-1.03,1.03l-1.255-1.255 C64.956,46.967,65,46.74,65,46.5c0-1.381-1.119-2.5-2.5-2.5c-0.24,0-0.467,0.044-0.685,0.108l-5.924-5.924 C55.956,37.967,56,37.74,56,37.5c0-1.381-1.119-2.5-2.5-2.5c-0.24,0-0.467,0.044-0.685,0.108l-1.755-1.755l0.53-0.53 C51.873,32.934,52.178,33,52.5,33c1.381,0,2.5-1.119,2.5-2.5c0-0.322-0.066-0.627-0.177-0.909l2.768-2.767 C57.873,26.934,58.178,27,58.5,27c1.381,0,2.5-1.119,2.5-2.5c0-0.322-0.066-0.627-0.177-0.909l0.634-0.634 C63.472,20.942,66.15,19.833,69,19.833z M61.146,53.439L58.707,51L63,46.707l2.439,2.439L61.146,53.439z M62.893,54.521 l2.439,2.439l-7.615,7.615c-2.036,2.036-4.807,3.01-7.615,2.737L62.893,54.521z M58,50.293L49.707,42L54,37.707L62.293,46 L58,50.293z M50.354,34.061L53.293,37L49,41.293l-2.939-2.939L50.354,34.061z M52.546,20.907c0.181-0.18,0.475-0.18,0.654,0 c0.181,0.181,0.181,0.474,0,0.654l-6.927,6.926l-0.654-0.654L52.546,20.907z M45.04,28.668l3.939,3.939L45.686,35.9l-3.939-3.939 L45.04,28.668z M44.979,36.607L32.13,49.456c-0.305-2.797,0.626-5.628,2.625-7.677l7.462-7.65c0.05-0.052,0.085-0.111,0.109-0.175 L44.979,36.607z M32.504,40.948l8.408-8.408l0.774,0.774c-0.067,0.025-0.131,0.061-0.185,0.115l-7.462,7.651 c-2.394,2.454-3.406,5.921-2.789,9.255l-1.299,1.299C28.718,47.887,29.668,43.784,32.504,40.948z M19.571,80.372l2.378-7.431 c1.186,0.623,3.131,2.013,4.665,4.896L19.571,80.372z M27.561,77.496c-1.729-3.328-3.966-4.87-5.3-5.53l4.301-13.441 c0.738,0.546,1.977,1.041,4.071,1.041c0.294,0,0.612-0.014,0.94-0.035c0.289,1.576,1.764,6.519,8.826,8.792 c-0.23,1.131-0.15,2.898,1.2,4.118L27.561,77.496z M42.621,71.965c-1.72-1.161-1.311-3.205-1.177-3.702l3.776-3.776 c0.195-0.195,0.195-0.512,0-0.707s-0.512-0.195-0.707,0l-3.647,3.647c-7.047-2.197-8.176-7.155-8.339-8.247l10.74-10.74 c0.195-0.195,0.195-0.512,0-0.707s-0.512-0.195-0.707,0L31.775,58.518c-2.978,0.238-4.296-0.456-4.868-1.01l18.446-18.447 L48.293,42l-3.78,3.78c-0.195,0.195-0.195,0.512,0,0.707c0.098,0.098,0.226,0.146,0.354,0.146s0.256-0.049,0.354-0.146l3.78-3.78 L57.293,51L46.916,61.377c-0.195,0.195-0.195,0.512,0,0.707c0.098,0.098,0.226,0.146,0.354,0.146s0.256-0.049,0.354-0.146 L58,51.707l2.439,2.439L42.621,71.965z M58.425,66.868c-2.775,2.775-6.799,3.747-10.493,2.615l1.293-1.293 c0.602,0.104,1.205,0.174,1.803,0.174c2.747,0,5.395-1.078,7.397-3.081l7.615-7.615l0.793,0.793L58.425,66.868z M67.539,57.754 L63.6,53.814l3.293-3.293l3.939,3.939L67.539,57.754z M78.939,46.354l-7.4,7.4l-0.793-0.793l7.4-7.4 c0.195-0.195,0.512-0.195,0.707,0l0.086,0.086C79.134,45.842,79.134,46.158,78.939,46.354z"></path>
</svg>